<svg xmlns="http://www.w3.org/2000/svg" width="50.57" height="45.315" viewBox="0 0 50.57 45.315">
  <path id="Tracé_44" data-name="Tracé 44" d="M456.735,340.874a13.469,13.469,0,0,1,6.232,1.546,14.453,14.453,0,0,1,5.042,4.455c3.118,4.411,3.791,9.572,2,15.339a26.925,26.925,0,0,1-3.884,7.709,42.924,42.924,0,0,1-5.582,6.271,64.1,64.1,0,0,1-13.137,9.481,3.535,3.535,0,0,1-1.738.514,3.063,3.063,0,0,1-1.513-.411c-7.969-4.473-13.729-9.2-18.128-14.871-3.919-5.056-5.752-10.089-5.6-15.386a15.679,15.679,0,0,1,3.053-8.811,14.423,14.423,0,0,1,7.443-5.286,13.409,13.409,0,0,1,3.768-.543,13.736,13.736,0,0,1,11.015,5.688,14.351,14.351,0,0,1,3.618-3.444A13.454,13.454,0,0,1,456.735,340.874Zm-11.044,41.178a59.991,59.991,0,0,0,12.105-8.767,39.013,39.013,0,0,0,5.069-5.683,22.994,22.994,0,0,0,3.322-6.576c1.423-4.58.951-8.454-1.445-11.843a10.293,10.293,0,0,0-3.634-3.222,9.335,9.335,0,0,0-9.586.5,11.736,11.736,0,0,0-4.017,4.8l-1.635,3.263L444,351.394c-.16-.268-.3-.515-.443-.754-.267-.458-.5-.854-.739-1.22a10.337,10.337,0,0,0-3.614-3.372,9.319,9.319,0,0,0-7.16-.787,10.4,10.4,0,0,0-5.353,3.828,11.642,11.642,0,0,0-2.269,6.542,16.845,16.845,0,0,0,1.2,6.737,24.554,24.554,0,0,0,3.57,6.086C433.17,373.593,438.423,377.921,445.691,382.052Z" transform="translate(-420.415 -340.874)" fill="#d10000"/>
</svg>
