<svg xmlns="http://www.w3.org/2000/svg" width="252.353" height="103.594" viewBox="0 0 252.353 103.594">
  <g id="Groupe_60" data-name="Groupe 60" transform="translate(-295.443 -413.775)">
    <g id="Groupe_57" data-name="Groupe 57" transform="translate(401.038 437.618)">
      <g id="Groupe_56" data-name="Groupe 56">
        <path id="Tracé_50" data-name="Tracé 50" d="M477.424,461.628h3.5l3.3,5.631,3.3-5.631h3.5v13.688h-2.777v-9.738l-3.05,5.045h-1.955l-3.051-5.045v9.738h-2.776Z" transform="translate(-477.424 -457.815)" fill="#fff"/>
        <path id="Tracé_51" data-name="Tracé 51" d="M507.571,461.628h2.777v13.688h-2.777Z" transform="translate(-490.148 -457.815)" fill="#fff"/>
        <path id="Tracé_52" data-name="Tracé 52" d="M519.007,461.628h3.559l6.12,9.8v-9.8h2.777v13.688H527.9l-6.12-9.836v9.836h-2.777Z" transform="translate(-494.975 -457.815)" fill="#fff"/>
        <path id="Tracé_53" data-name="Tracé 53" d="M547.192,461.628h2.777v13.688h-2.777Z" transform="translate(-506.871 -457.815)" fill="#fff"/>
        <path id="Tracé_54" data-name="Tracé 54" d="M558.511,471.276a3.948,3.948,0,0,0,3.031,1.682,1.542,1.542,0,0,0,1.76-1.584c0-2.444-6.257-1.9-6.257-6.453a4.093,4.093,0,0,1,4.38-3.97,6.048,6.048,0,0,1,4.791,2.308l-2.034,1.818a3.617,3.617,0,0,0-2.738-1.7,1.454,1.454,0,0,0-1.584,1.427c0,2.444,6.257,1.877,6.257,6.512-.039,2.542-2.033,4.106-4.536,4.106a6.173,6.173,0,0,1-5.084-2.288Z" transform="translate(-510.798 -457.529)" fill="#fff"/>
        <path id="Tracé_55" data-name="Tracé 55" d="M575.581,461.628h11.224v2.523h-4.224v11.165H579.8V464.151h-4.224Z" transform="translate(-518.853 -457.815)" fill="#fff"/>
        <path id="Tracé_56" data-name="Tracé 56" d="M599.232,458.843h7.978v2.366h-5.2v3.168h4.419v2.366h-4.419v3.422h5.2v2.366h-7.978Zm.235-3.813h2.855l2.209,2.64h-2.542Z" transform="translate(-528.835 -455.03)" fill="#fff"/>
        <path id="Tracé_57" data-name="Tracé 57" d="M618.619,461.628H622.8c3.011,0,4.869,1.545,4.869,4.087a3.722,3.722,0,0,1-2.19,3.539l4.3,6.062H626.46l-3.637-5.534H621.4v5.534h-2.777Zm2.777,2.366v3.422h1.564a1.717,1.717,0,1,0,0-3.422Z" transform="translate(-537.017 -457.815)" fill="#fff"/>
        <path id="Tracé_58" data-name="Tracé 58" d="M640.917,461.628h7.978v2.366h-5.2v3.168h4.419v2.366h-4.419v3.422h5.2v2.366h-7.978Z" transform="translate(-546.429 -457.815)" fill="#fff"/>
        <path id="Tracé_59" data-name="Tracé 59" d="M477.424,495.78H482.8a6.857,6.857,0,1,1,0,13.688h-5.377ZM480.2,498.3v8.643h2.64a4.322,4.322,0,1,0,0-8.643Z" transform="translate(-477.424 -472.229)" fill="#fff"/>
        <path id="Tracé_60" data-name="Tracé 60" d="M503.951,495.78h7.978v2.366h-5.2v3.168h4.419v2.366h-4.419V507.1h5.2v2.366h-7.978Z" transform="translate(-488.62 -472.229)" fill="#fff"/>
        <path id="Tracé_61" data-name="Tracé 61" d="M532.136,495.78h2.776v11.165h5.2v2.523h-7.978Z" transform="translate(-500.516 -472.229)" fill="#fff"/>
        <path id="Tracé_62" data-name="Tracé 62" d="M553.39,495.78h3.637l5.182,13.688h-2.953l-1.31-3.559H552.47l-1.31,3.559h-2.953Zm3.7,7.763-1.877-5.143-1.877,5.143Z" transform="translate(-507.299 -472.229)" fill="#fff"/>
        <path id="Tracé_63" data-name="Tracé 63" d="M593.707,505.1l2.19,1.681a7,7,0,0,1-5.768,2.8,7.235,7.235,0,1,1,5.768-11.693l-2.19,1.7a4.28,4.28,0,0,0-3.579-1.877,4.639,4.639,0,0,0,0,9.268A4.281,4.281,0,0,0,593.707,505.1Z" transform="translate(-521.923 -471.943)" fill="#fff"/>
        <path id="Tracé_64" data-name="Tracé 64" d="M617.219,495.78H620v8.33c0,3.6-2.112,5.749-5.553,5.749-3.422,0-5.534-2.15-5.534-5.749v-8.33h2.777v8.564a2.771,2.771,0,1,0,5.534,0Z" transform="translate(-532.919 -472.229)" fill="#fff"/>
        <path id="Tracé_65" data-name="Tracé 65" d="M634.048,495.78h2.776v11.165h5.2v2.523h-7.978Z" transform="translate(-543.529 -472.229)" fill="#fff"/>
        <path id="Tracé_66" data-name="Tracé 66" d="M646.872,495.78H658.1V498.3h-4.224v11.166H651.1V498.3h-4.224Z" transform="translate(-548.942 -472.229)" fill="#fff"/>
        <path id="Tracé_67" data-name="Tracé 67" d="M678.427,495.78H681.2v8.33c0,3.6-2.112,5.749-5.553,5.749-3.422,0-5.534-2.15-5.534-5.749v-8.33h2.777v8.564a2.771,2.771,0,1,0,5.534,0Z" transform="translate(-558.752 -472.229)" fill="#fff"/>
        <path id="Tracé_68" data-name="Tracé 68" d="M695.256,495.78h4.185c3.011,0,4.869,1.545,4.869,4.087a3.724,3.724,0,0,1-2.19,3.539l4.3,6.062H703.1l-3.637-5.534h-1.427v5.534h-2.777Zm2.777,2.366v3.422H699.6a1.717,1.717,0,1,0,0-3.422Z" transform="translate(-569.363 -472.229)" fill="#fff"/>
        <path id="Tracé_69" data-name="Tracé 69" d="M717.554,495.78h7.978v2.366h-5.2v3.168h4.419v2.366H720.33V507.1h5.2v2.366h-7.978Z" transform="translate(-578.774 -472.229)" fill="#fff"/>
      </g>
    </g>
    <g id="Groupe_58" data-name="Groupe 58" transform="translate(401.03 483.949)">
      <path id="Tracé_70" data-name="Tracé 70" d="M521.957,582.31c.372,0,.693.281.522.994l-1.726.4c.3-.8.8-1.4,1.2-1.4m.954,2.78h-.341a2.075,2.075,0,0,1-1.355.913c-.472,0-.713-.281-.713-.913a3.815,3.815,0,0,1,.08-.763l2.78-.913c.542-1.285-.11-1.847-.873-1.847-1.315,0-2.81,2.2-2.81,4.125,0,.863.411,1.334,1.054,1.334.753,0,1.536-.733,2.178-1.937m-.552-4.035,1.957-1.827v-.21h-1.054l-1.2,2.037Zm-6,1.285h.923l-1.465,4a.465.465,0,0,0,.4.683,3.407,3.407,0,0,0,2.649-1.947h-.261a3.654,3.654,0,0,1-1.7,1.024l1.345-3.763h1.375l.17-.572h-1.334l.511-1.445h-.532l-.954,1.445-1.134.161Zm-1.244-.191a.412.412,0,0,0-.331-.583,2.585,2.585,0,0,0-2.138,1.737h.261a2.04,2.04,0,0,1,1.114-.853l-1.536,3.994a.4.4,0,0,0,.331.582,2.531,2.531,0,0,0,2.037-1.736h-.261a2.048,2.048,0,0,1-1.114.853Zm.281-2.007a.663.663,0,1,0-.662-.662.662.662,0,0,0,.662.662m-8.841,6.142c-.2.451.01.743.451.743.271,0,.391-.07.5-.361l1.064-2.82a3.82,3.82,0,0,1,1.907-1.244c.291,0,.251.241.061.6l-1.636,3.141a.461.461,0,0,0,.4.683,2.583,2.583,0,0,0,2.137-1.736h-.261a2.049,2.049,0,0,1-1.114.853l1.406-2.84a2.284,2.284,0,0,0,.271-.974.691.691,0,0,0-.743-.763c-.692,0-1.395.783-2.228,1.747v-.743c0-.532-.171-1-.652-1-.3,0-.592.261-.863.632v.1c.522-.03.753.753.381,1.576Zm-.02-3.492c.191-.652.09-1.225-.411-1.225-.592,0-.743.452-1.345,1.747v-.743c0-.532-.171-1-.653-1-.562,0-1.074.873-1.465,1.737h.261c.271-.392.522-.622.722-.622.241,0,.371.371,0,1.194l-1.084,2.409c-.2.451.01.743.451.743.271,0,.391-.07.5-.361l1.064-2.82c.3-.371.572-.692.913-1.054Zm-6.162-.482c.371,0,.692.281.522.994l-1.726.4c.3-.8.8-1.4,1.2-1.4m.954,2.78h-.342a2.072,2.072,0,0,1-1.355.913c-.472,0-.713-.281-.713-.913a3.773,3.773,0,0,1,.08-.763l2.78-.913c.542-1.285-.11-1.847-.873-1.847-1.315,0-2.81,2.2-2.81,4.125,0,.863.411,1.334,1.054,1.334.753,0,1.536-.733,2.178-1.937m-6.554-2.75h.924l-1.465,4a.465.465,0,0,0,.4.683,3.407,3.407,0,0,0,2.649-1.947h-.261a3.65,3.65,0,0,1-1.7,1.024l1.345-3.763h1.375l.17-.572h-1.334l.512-1.445h-.532l-.954,1.445-1.134.161Zm-5.068,3.121c0-1.235,1.375-2.911,2.148-2.911a1.744,1.744,0,0,1,.472.06l-.8,2.138c-.462.562-1.174,1.244-1.506,1.244-.191,0-.311-.16-.311-.532m4.225-4.125-.422-.03-.472.462h-.1c-2.289,0-4.266,2.569-4.266,4.436a.76.76,0,0,0,.823.823c.592,0,1.174-.843,1.827-1.746l-.03.321c-.08.924.2,1.425.683,1.425.562,0,1.074-.873,1.465-1.736h-.261c-.27.391-.522.622-.722.622s-.361-.381,0-1.195Zm-4.877,1.455c.19-.652.09-1.225-.412-1.225-.592,0-.743.452-1.345,1.747v-.743c0-.532-.171-1-.652-1-.562,0-1.074.873-1.465,1.737h.261c.271-.392.522-.622.722-.622.241,0,.372.371,0,1.194l-1.084,2.409c-.2.451.01.743.451.743a.448.448,0,0,0,.5-.361l1.063-2.82c.3-.371.572-.692.914-1.054Zm-7.688,4.035.1-.311c-1.335-.251-1.505-.251-.974-1.706l.542-1.5h1.475c.662,0,.672.271.572.993h.381l.884-2.419h-.381c-.331.572-.592.993-1.315.993h-1.455l.773-2.118c.241-.672.381-.813,1.285-.813h.642c.933,0,1.044.251,1.044,1.194h.372l.311-1.646h-5.54l-.1.312c1.074.221,1.174.321.672,1.706l-1.2,3.291c-.5,1.375-.713,1.485-1.946,1.706l-.091.311Z" transform="translate(-477.409 -553.608)" fill="#fff"/>
      <path id="Tracé_71" data-name="Tracé 71" d="M508.52,559.608c.372,0,.692.281.522.993l-1.726.4c.3-.8.8-1.4,1.2-1.4m.954,2.78h-.342a2.07,2.07,0,0,1-1.355.913c-.472,0-.713-.281-.713-.913a3.775,3.775,0,0,1,.08-.763l2.78-.913c.542-1.284-.11-1.846-.873-1.846-1.315,0-2.811,2.2-2.811,4.125,0,.863.411,1.335,1.054,1.335.753,0,1.536-.733,2.178-1.937m-.552-4.035,1.957-1.826v-.211h-1.054l-1.2,2.037Zm-6,1.285h.923l-1.465,4a.465.465,0,0,0,.4.683,3.407,3.407,0,0,0,2.649-1.947h-.261a3.65,3.65,0,0,1-1.7,1.024l1.345-3.764h1.375l.171-.572h-1.335l.512-1.445h-.532l-.954,1.445-1.134.161Zm-1.244-.191a.412.412,0,0,0-.331-.582,2.584,2.584,0,0,0-2.138,1.736h.261a2.049,2.049,0,0,1,1.114-.853l-1.536,3.995a.4.4,0,0,0,.331.582,2.531,2.531,0,0,0,2.037-1.736h-.261a2.049,2.049,0,0,1-1.114.853Zm.281-2.007a.662.662,0,0,0,.662-.662.668.668,0,0,0-.662-.662.662.662,0,1,0,0,1.325m-5.339,6,2.8-7.336-.09-.11-1.756.2v.211l.342.261c.311.241.21.472-.07,1.214l-2.187,5.761a.461.461,0,0,0,.4.683,2.465,2.465,0,0,0,2.037-1.736h-.261a2.27,2.27,0,0,1-1.214.853m-5.319-.683c0-1.234,1.375-2.91,2.148-2.91a1.745,1.745,0,0,1,.472.06l-.8,2.138c-.461.562-1.174,1.244-1.5,1.244-.191,0-.312-.161-.312-.532m4.225-4.125-.421-.03-.472.461h-.1c-2.288,0-4.265,2.57-4.265,4.436a.759.759,0,0,0,.823.823c.592,0,1.174-.843,1.826-1.747l-.03.321c-.08.923.2,1.425.683,1.425.562,0,1.074-.873,1.465-1.736h-.261c-.271.391-.522.622-.723.622s-.361-.381,0-1.194ZM485.308,565.3c0-.532.511-.863,1.244-1.154a9.1,9.1,0,0,0,1.084.411c.763.251,1.054.351,1.054.582,0,.492-.833.863-1.967.863-.954,0-1.415-.2-1.415-.7m2.077-3.242c-.331,0-.462-.281-.462-.6,0-.893.482-2.208,1.234-2.208.331,0,.462.281.462.6,0,.893-.481,2.208-1.234,2.208m2.178,2.75c0-.642-.572-.873-1.5-1.154-.8-.241-1.165-.311-1.165-.572a.821.821,0,0,1,.512-.642,2.34,2.34,0,0,0,2.168-2.248,1.36,1.36,0,0,0-.11-.552h1.114l.171-.572H488.98a1.367,1.367,0,0,0-.713-.2,2.328,2.328,0,0,0-2.3,2.218,1.292,1.292,0,0,0,1.063,1.334c-.652.291-1.014.632-1.014,1.034a.632.632,0,0,0,.271.542c-1.5.442-2.1.943-2.1,1.656,0,.692.913.984,2,.984,1.837,0,3.372-.993,3.372-1.827m-7.015-4.3c.662,0,.673.271.572.993h.381l.883-2.419H484c-.331.572-.592.993-1.315.993h-1.455l.733-2.017c.241-.673.381-.8,1.285-.8h.642c.933,0,1.044.251,1.044,1.184h.372l.311-1.646h-5.54l-.1.311c1.074.221,1.174.321.672,1.706l-1.2,3.292c-.5,1.375-.713,1.485-1.946,1.706l-.091.311h6.162l1.1-1.746h-.422a4.04,4.04,0,0,1-2.82,1.295c-1.636,0-1.485-.07-.944-1.566l.582-1.6Zm.8-4.205,1.957-1.345v-.211h-1.185l-1.084,1.556Z" transform="translate(-477.409 -543.45)" fill="#fff"/>
      <path id="Tracé_72" data-name="Tracé 72" d="M507.867,538.81c.372,0,.692.281.522.994l-1.726.4c.3-.8.8-1.395,1.2-1.395m.954,2.78h-.341a2.075,2.075,0,0,1-1.355.913c-.472,0-.713-.281-.713-.913a3.773,3.773,0,0,1,.08-.763l2.78-.913c.542-1.285-.11-1.846-.873-1.846-1.315,0-2.81,2.2-2.81,4.125,0,.863.411,1.334,1.054,1.334.752,0,1.536-.732,2.178-1.937m-.552-4.035,1.957-1.826v-.211h-1.054l-1.2,2.037Zm-5.75,1.285h.733l-1.466,4a.465.465,0,0,0,.4.682,3.407,3.407,0,0,0,2.649-1.947h-.261a3.65,3.65,0,0,1-1.7,1.024l1.345-3.763H505.6l.171-.572h-1.334l.511-1.445h-.532l-.954,1.445-.943.161Zm-.722.451c.191-.652.09-1.224-.412-1.224-.592,0-.743.451-1.345,1.746v-.743c0-.532-.17-1-.652-1-.562,0-1.074.873-1.465,1.736h.261c.271-.391.522-.622.723-.622.24,0,.371.372,0,1.195l-1.084,2.408c-.2.452.01.743.452.743a.447.447,0,0,0,.5-.361l1.064-2.82c.3-.372.572-.693.913-1.054Zm-6.162-.481c.371,0,.692.281.522.994l-1.726.4c.3-.8.8-1.395,1.2-1.395m.953,2.78h-.341a2.075,2.075,0,0,1-1.355.913c-.472,0-.713-.281-.713-.913a3.773,3.773,0,0,1,.08-.763l2.78-.913c.542-1.285-.11-1.846-.873-1.846-1.315,0-2.81,2.2-2.81,4.125,0,.863.411,1.334,1.054,1.334.752,0,1.536-.732,2.178-1.937m-6.814,1.124c-.271,0-.662-.251-.662-.472a5.619,5.619,0,0,1,.27-.773l.452-1.194c.481-.572,1.214-1.184,1.626-1.184.251,0,.442.161.442.532,0,1.094-1.024,3.091-2.127,3.091m3.161-3.533c0-.813-.3-1.114-.863-1.114-.7,0-1.365.743-2.027,1.646l1.676-4.406-.09-.11-1.756.2v.21l.342.261c.311.241.21.492-.07,1.214l-1.807,4.656a5.33,5.33,0,0,0-.291.853c0,.482.652.933,1.244.933,1.365,0,3.643-2.458,3.643-4.345m-5.46-.532a.412.412,0,0,0-.331-.582,2.585,2.585,0,0,0-2.138,1.736h.261a2.04,2.04,0,0,1,1.114-.853l-1.535,3.994a.4.4,0,0,0,.331.582,2.531,2.531,0,0,0,2.037-1.736h-.261a2.04,2.04,0,0,1-1.114.853Zm.281-2.007a.662.662,0,1,0-.662-.662.662.662,0,0,0,.662.662M483.712,536h-3.653l-.1.312c1.074.221,1.174.321.672,1.706l-1.184,3.292c-.5,1.375-.713,1.485-1.946,1.706l-.091.311h5.56l1.2-2.148h-.421a3.854,3.854,0,0,1-2.72,1.7c-.933,0-1.044-.161-.542-1.566l1.184-3.292c.492-1.375.713-1.485,1.947-1.706Z" transform="translate(-477.409 -535.197)" fill="#fff"/>
    </g>
    <g id="Groupe_59" data-name="Groupe 59" transform="translate(400.991 414.169)">
      <path id="Tracé_73" data-name="Tracé 73" d="M498,430.488c.195-.195.392-.4.588-.614h0a11.566,11.566,0,0,1,1.145-1.169,3.724,3.724,0,0,1,.373-.3c.035-.035.035-.1.069-.138-.172.069-.274.206-.447.275-.034,0-.068-.035-.034-.069l.367-.276h-.024c-.034,0-.034-.034-.034-.069a1.4,1.4,0,0,0-1.1.516c-.069.034-.138-.035-.172-.035-.515.172-.893.618-1.408.825v-.069a6.583,6.583,0,0,1-.618.24,3.665,3.665,0,0,1-.859.034,11.506,11.506,0,0,0-1.249.223l-.036.009a2.9,2.9,0,0,0-.64.258l-.023.013c-.017.021-.034.042-.05.06a.843.843,0,0,1-.236.206,3.442,3.442,0,0,0-.569.446.1.1,0,0,1-.055.017c-.184.177-.366.356-.553.529a.174.174,0,0,1-.105.013l0,0,.02-.033c.029-.049.058-.1.088-.145s.067-.107.1-.159c.047-.071.095-.141.146-.209a.032.032,0,0,0,0-.045.069.069,0,0,0-.047-.018,3.259,3.259,0,0,1,.576-.43v-.006c-.023.008-.056-.01-.039-.035s.039-.063.059-.094l.011-.031-.026-.027a1.379,1.379,0,0,0-.161.113c-.082.075-.146.226-.271.224a.19.19,0,0,1-.052-.008.1.1,0,0,1-.036-.012l0-.008.005-.009,0-.009.017-.029.016-.029.013-.024.024-.044.018-.031.044-.076.021-.036c.012-.021.024-.042.036-.063a.041.041,0,0,0-.026-.061.78.78,0,0,1,.235-.2h-.01c.132-.066.263-.147.395-.221l.057-.049a2.309,2.309,0,0,0-.546.27.271.271,0,0,0-.058.031.084.084,0,0,1-.086-.031.042.042,0,0,1-.008-.025c.034-.069.138-.1.206-.172.035,0,.069,0,.069.034,1.1-.859,2.611-.653,3.881-1.1l.309-.206c.172-.069.309-.24.516-.343a1.506,1.506,0,0,0,.584-.79.119.119,0,0,0-.034-.069,5.285,5.285,0,0,1-1.511,1.133,6.443,6.443,0,0,1-2.267.412c.034-.069.1-.069.172-.069,0-.1.069-.137.138-.206h.1c.034,0,.034-.069.069-.069.068,0,.172-.035.137-.035-.1-.137-.309.1-.481,0,.069-.068.035-.172.1-.206h.137a.24.24,0,0,1,.069-.138c.516-.309,1-.55,1.477-.824-.1,0-.172.1-.275.034.069,0,0-.1.069-.1.378-.1.687-.309,1.065-.446-.137,0-.24.1-.377,0,.068-.035.1-.1.206-.1v-.1c0-.035.035-.035.069-.035a.121.121,0,0,1-.069-.034c.035-.069.138-.034.206-.1-.035,0-.1,0-.1-.035a.684.684,0,0,1,.447-.206c-.034-.069-.138,0-.138-.069,0-.035.035-.035.069-.035h-.069c-.069-.034-.034-.1-.034-.137a2.417,2.417,0,0,0,.309-.825c-.035,0-.069,0-.069-.034a2.818,2.818,0,0,1-1.408.652h-.172a.7.7,0,0,1-.584-.034,2.358,2.358,0,0,1-.343-.275,3.955,3.955,0,0,0-.859-.412,7.724,7.724,0,0,0-2.645-.378,5.784,5.784,0,0,1,1.2-.343,5.117,5.117,0,0,1,1.752-.343,1.142,1.142,0,0,0-.344,0,5.656,5.656,0,0,0-1.477.206c-.343.069-.653.206-1,.275-.206.069-.309.275-.55.24v-.1a1.974,1.974,0,0,1,1.3-.859,6.482,6.482,0,0,1,1.821.069,8.619,8.619,0,0,1,1.3.24c.172,0,.206.275.343.309.206.069.412,0,.618.137,0-.068-.034-.137,0-.206.138-.138.309.034.447-.035.275-.172-.24-.481-.378-.721a.122.122,0,0,1,.034-.069,3.965,3.965,0,0,0,.825.687c.172.069.584.172.515-.034a5.465,5.465,0,0,0-.79-1.03v-.138c-.069,0-.069-.034-.1-.069V422.6c-.138-.069-.1-.206-.172-.309-.1-.172-.035-.413-.1-.618a3.635,3.635,0,0,1-.137-.584c-.1-.584-.24-1.1-.309-1.649-.069-.652.378-1.168.687-1.752a2.948,2.948,0,0,1,.962-1.1,3.014,3.014,0,0,1,.653-1.1A2.86,2.86,0,0,1,500,414.8a9.062,9.062,0,0,1,.913-.349H477.341v18.176h16.693a15.156,15.156,0,0,1,2.22-1.144A8.826,8.826,0,0,0,498,430.488Zm-5.282-2.46c-.069,0-.206.035-.172-.034.034-.172.275-.172.412-.24.069-.035.172-.1.24-.069.069.1.172.069.24.138C493.238,428.028,492.963,427.925,492.723,428.028Zm-5.255-.755a.121.121,0,0,1-.034-.069,10.59,10.59,0,0,0,1.1-1.752,4.743,4.743,0,0,0,1.167-.962,6.682,6.682,0,0,1,1.923-1.511,1.331,1.331,0,0,1,.893.035c-.1.137-.275.1-.413.206a.127.127,0,0,1-.1-.034.128.128,0,0,0,.034-.1c-.343.378-.824.55-1.1,1-.206.343-.344.79-.79.893-.138.034.034-.1-.035-.069A11.589,11.589,0,0,0,487.468,427.272Zm2.851-2.267c-.034.069-.072.076-.1.138a.271.271,0,0,1-.138.138c-.034,0-.069,0-.069-.035a.419.419,0,0,1,.275-.309C490.319,424.937,490.319,424.971,490.319,425.005Zm1.6,5.146a.3.3,0,0,1-.084.1c.043.009.073.028.045.053a.752.752,0,0,1-.26.181.3.3,0,0,1-.053.008c-.042.04-.084.081-.128.12s-.229.01-.172-.041c.087-.077.168-.161.254-.24a1.676,1.676,0,0,0,.143-.136.419.419,0,0,1,.073-.076C491.76,430.1,491.941,430.084,491.914,430.151Zm-.615-.284-.009.006c-.128.09-.257.183-.392.261s-.3.15-.453.223l0-.008a.045.045,0,0,0-.058-.014,1.644,1.644,0,0,0-.346.263l-.047.046,0,0,0,0-.049.049-.006.006,0,0c-.024.024-.048.049-.075.08a.2.2,0,0,1-.046.048c-.021.014-.08.014-.075-.026V430.8l-.061.031c-.018.009-.036.019-.054.029a.053.053,0,0,0-.024,0,.041.041,0,0,0-.024.008c-.042.033-.084.068-.124.1a1.773,1.773,0,0,0-.2.212l0,0-.007.01-.01.013-.011.014,0,0-.024.034v0a.051.051,0,0,1-.028.014l-.014-.021-.009-.016q-.016-.027-.029-.056v0l-.008-.017c.038-.04.073-.081.108-.124l.007-.008.036-.044.057-.073.021-.028c.038-.049.073-.1.107-.145l0,0,.014-.021c.017-.024.032-.049.047-.074s.026-.045.038-.069l0,0,0-.008.006-.013c.012-.026.023-.053.032-.08l0-.009.008-.023.01-.038h0l0-.008c0-.017.009-.033.012-.05a.033.033,0,0,0,0-.023,1.072,1.072,0,0,1,.136-.186l-.016.009c-.049.031-.081.076-.127.11s-.106-.018-.062-.051a.923.923,0,0,0,.078-.071l0-.005a1.715,1.715,0,0,1,.175-.175c.039-.029.074-.053.106-.08l.015-.014a.741.741,0,0,1,.077-.087l0,0c.329-.317.882-.3,1.316-.505.172-.069.377.034.549,0a.513.513,0,0,1,.309.068C491.865,429.5,491.58,429.691,491.3,429.867Zm.7-2.389c-.034-.034.1,0,.138-.068h-.275c-.034,0-.034-.035-.034-.069-.172.034-.378.1-.55.137-.24.069-.446.24-.721.309-.378.138-.687.447-1.1.584-.034,0-.034-.034-.034-.068.034-.1.172-.138.24-.24,0-.035,0-.069-.035-.069a6.187,6.187,0,0,1,1-.893V427c.1-.137.275-.206.343-.377a.618.618,0,0,1,.344-.309c-.035-.035-.1-.035-.1-.1-.138,0-.274.069-.412-.034a.483.483,0,0,1,.216-.122.122.122,0,0,1-.078-.05c-.035-.069.066-.146.172-.172.138-.035.309-.035.412-.138-.24-.034-.515.069-.755-.069a1.835,1.835,0,0,1,.858-1.03c.035,0,.1,0,.1.035a.335.335,0,0,1-.275.343,3.623,3.623,0,0,1,.825.206c-.035.068-.1.034-.138.034.172.1.378.034.55.172-.1.1-.206,0-.309,0a8.986,8.986,0,0,1,3.091,1.237,9.495,9.495,0,0,1-2.37.721.752.752,0,0,1-.275-.035c0,.035,0,.1-.034.1a.567.567,0,0,0-.343.068C492.311,427.547,492.1,427.581,492,427.478Z" transform="translate(-477.341 -414.456)" fill="#293173"/>
      <path id="Tracé_74" data-name="Tracé 74" d="M547.707,414.456H528.156a.9.9,0,0,1,.186.086l.493.262a1.62,1.62,0,0,1,.655.55c.069.1.172.309.1.447-.069.172-.1.446-.275.515a1.279,1.279,0,0,1-.721.069,1.742,1.742,0,0,1-.412-.069,2.794,2.794,0,0,1,1.34.928c.034.068.172.1.309.1.034,0,.034.069.034.1-.069.069-.138.1-.1.206h.1c.172-.069.138-.412.378-.309a.388.388,0,0,1,.138.515,3.671,3.671,0,0,1-.413.344.3.3,0,0,0,0,.24,1.053,1.053,0,0,1,.172.412c.1.24.137.515.24.755a4.859,4.859,0,0,1,.24,1.546c0,.275-.138.515-.035.789a2.884,2.884,0,0,0,.378.721,5.341,5.341,0,0,1,.378.55c.206.344.584.687.412,1.1-.1.24-.481.206-.721.343-.206.172-.035.447.069.618.172.309-.206.515-.447.618.069.1.206.068.24.137.034.172.206.275.1.447-.137.206-.55.309-.343.618a.909.909,0,0,1-.034.755.841.841,0,0,1-.618.515,1.405,1.405,0,0,1-.652.035.485.485,0,0,0-.206-.069,15.294,15.294,0,0,0-1.752-.24,1.958,1.958,0,0,0-.481.138,3.062,3.062,0,0,0-.416.368l0,0c-.026.027-.051.055-.075.083l-.044.053-.029.035a3.334,3.334,0,0,0-.271.4l-.015.026-.027.049a3.3,3.3,0,0,0-.26.63,2.068,2.068,0,0,0,.032,1.625c.046.046,1.134.381,1.892.719a6.388,6.388,0,0,1,.811.41h19.2Z" transform="translate(-497.725 -414.456)" fill="#e10814"/>
      <path id="Tracé_75" data-name="Tracé 75" d="M531.03,425.682c.138.035.343.035.343.1-.069.275-.481.344-.687.618h-.1c-.1.069-.069.24-.172.24a.485.485,0,0,0-.309.035.589.589,0,0,0,.515.206.153.153,0,0,1,.1.138.107.107,0,0,0,.069-.035c.034,0,.069,0,.069.035v.138c-.1.137-.275.068-.413.1a1.536,1.536,0,0,0,.79,0c.206-.069,0-.412.138-.584-.069,0,0-.1-.069-.1.069-.068.138-.172.206-.206a.244.244,0,0,0,.206-.1c0-.068-.137-.1-.1-.172.206-.137.378-.343.309-.55-.035-.1-.309-.1-.481-.172a1.142,1.142,0,0,0-.584.035,2.868,2.868,0,0,0-.516.137,2.375,2.375,0,0,0-.652.344,4.82,4.82,0,0,1,.755-.206A2.248,2.248,0,0,1,531.03,425.682Z" transform="translate(-499.436 -419.051)" fill="#9d9d9c"/>
    </g>
    <text id="Soutenu_par" data-name="Soutenu
par" transform="translate(356.443 426.775)" fill="#fff" font-size="17" font-family="MyriadPro-Regular, Myriad Pro"><tspan x="-60.027" y="0">Soutenu</tspan><tspan x="-23.426" y="18">par</tspan></text>
    <path id="Ligne_138" data-name="Ligne 138" d="M.5,103h-1V0h1Z" transform="translate(382.795 414.169)" fill="#fff"/>
  </g>
</svg>
